<svg xmlns="http://www.w3.org/2000/svg" viewBox="0 0 638.965 227.539"><defs><style>.cls-1{fill:#77c043;}.cls-1,.cls-2,.cls-4{stroke:#231f20;}.cls-1,.cls-2,.cls-4,.cls-6,.cls-8{stroke-miterlimit:10;}.cls-2,.cls-3,.cls-5,.cls-6,.cls-8{fill:#231f20;}.cls-4{fill:none;}.cls-5{font-size:200px;font-family:TimesNewRomanPSMT, Times New Roman;}.cls-6,.cls-8{stroke:#939598;}.cls-7{fill:#939598;}.cls-8{stroke-linecap:round;}</style></defs><title>CurveV</title><g id="Layer_2" data-name="Layer 2"><path class="cls-1" d="M116.5,289.167s0,41.5,40.5,40.5c0,0,18.1-1.167,25.1-11.833a24.963,24.963,0,0,0-2.265-26A48.813,48.813,0,0,0,165.333,278c-.851-.507-3.479-2.1-4.5-2.667-3.563-1.99-12.568-3.207-13.833-3.333C145.333,271.833,121.667,259.667,116.5,289.167Z" transform="translate(-98.963 -165.413)"/><circle class="cls-2" cx="36.162" cy="120.587" r="5"/><circle class="cls-3" cx="61.131" cy="130.587" r="5"/><path class="cls-3" d="M602.06,216.364a101.288,101.288,0,0,0-13.53-8.714,120.156,120.156,0,0,0-14.546-6.763,103.141,103.141,0,0,0-31.12-6.806,92.339,92.339,0,0,0-15.936.539,97.173,97.173,0,0,0-15.634,3.254,118.859,118.859,0,0,0-29.007,13.639,101.859,101.859,0,0,1,28.539-15.128c1.287-.428,2.6-.773,3.9-1.163l1.959-.56c.659-.164,1.325-.3,1.988-.445,1.328-.282,2.652-.6,3.986-.852l4.03-.623a91.873,91.873,0,0,1,16.283-.656,96.981,96.981,0,0,1,31.59,7.359A100.119,100.119,0,0,1,602.06,216.364Z" transform="translate(-98.963 -165.413)"/><path class="cls-3" d="M482.287,211.512q.279,4.264.866,8.466c.372,2.8.79,5.6,1.315,8.367,1.016,5.544,2.24,11.031,3.767,16.421q2.239,8.095,5.155,15.929,2.96,7.81,6.571,15.3c2.382,5,5.123,9.807,7.961,14.531l2.209,3.494c.74,1.161,1.55,2.277,2.309,3.424,1.5,2.308,3.209,4.47,4.822,6.695a161.133,161.133,0,0,0,10.7,12.529c1.85,2.03,3.833,3.931,5.788,5.859.958.984,2,1.876,3.021,2.8l3.062,2.757-5.4-.746.721-.38.836-.459c.562-.308,1.132-.658,1.7-1,1.131-.7,2.258-1.427,3.367-2.2,2.222-1.533,4.394-3.183,6.488-4.937a113.007,113.007,0,0,0,11.928-11.349,142.216,142.216,0,0,0,10.469-12.875c3.229-4.519,6.2-9.237,8.979-14.086,2.8-4.843,5.234-9.9,7.6-15,1.09-2.592,2.285-5.15,3.271-7.8l1.558-3.943,1.422-4a279.813,279.813,0,0,0,9.293-32.95A176.689,176.689,0,0,1,597.5,250.7l-1.026,4.241-1.183,4.2c-.746,2.821-1.759,5.558-2.645,8.345-.483,1.379-1.007,2.744-1.523,4.113s-1.037,2.738-1.624,4.081l-1.717,4.051-1.881,3.984a135,135,0,0,1-19.334,29.618,116.881,116.881,0,0,1-12.683,12.616q-3.429,2.911-7.151,5.519c-1.237.873-2.511,1.71-3.813,2.526-.662.4-1.311.806-2,1.194-.341.195-.682.39-1.044.582s-.68.361-1.188.606l-2.931,1.415-2.467-2.16a155.014,155.014,0,0,1-23.616-25.88,150.552,150.552,0,0,1-16.849-30.584,153,153,0,0,1-9.339-33.374,150.34,150.34,0,0,1-1.742-17.149A104.468,104.468,0,0,1,482.287,211.512Z" transform="translate(-98.963 -165.413)"/><path class="cls-4" d="M528.565,324.431s18.452-19.111,34.183-13.936" transform="translate(-98.963 -165.413)"/><path class="cls-4" d="M517.777,312.506s19.114-37.892,60.869-23.828" transform="translate(-98.963 -165.413)"/><path class="cls-4" d="M506.915,297.358s34.371-54.407,81.695-28.685" transform="translate(-98.963 -165.413)"/><path class="cls-4" d="M495.013,274.426s23.767-25.064,42.294-33.022c17.886-7.683,35.471-19.832,60.966-3.413" transform="translate(-98.963 -165.413)"/><path class="cls-4" d="M486.534,248.312s52.153-53.234,102.835-40.747" transform="translate(-98.963 -165.413)"/><path class="cls-4" d="M482.83,225.859s20.851-32.287,76.591-30.4" transform="translate(-98.963 -165.413)"/><path class="cls-3" d="M487.441,224.9q3.277-2.709,6.6-5.352c1.1-.888,2.172-1.823,3.346-2.616a29.976,29.976,0,0,1,3.675-2.174l.06.08a29.978,29.978,0,0,1-3.137,2.9c-1.1.9-2.3,1.653-3.466,2.455q-3.486,2.429-7.021,4.79Z" transform="translate(-98.963 -165.413)"/><path class="cls-3" d="M488.134,228.358q2.952-2.832,5.958-5.6c1-.93,1.954-1.9,3.028-2.743a27.779,27.779,0,0,1,3.387-2.327l.065.076a27.784,27.784,0,0,1-2.8,3.008c-.988.939-2.092,1.744-3.159,2.592q-3.18,2.567-6.415,5.07Z" transform="translate(-98.963 -165.413)"/><path class="cls-3" d="M488.69,231.53q2.955-2.726,5.963-5.388c1-.895,1.957-1.834,3.029-2.636a26.856,26.856,0,0,1,3.38-2.213l.064.077a26.857,26.857,0,0,1-2.806,2.906c-.989.9-2.091,1.671-3.157,2.482q-3.178,2.457-6.409,4.849Z" transform="translate(-98.963 -165.413)"/><path class="cls-3" d="M489.664,234.557q2.365-2.2,4.784-4.345a29.783,29.783,0,0,1,2.439-2.114,17.181,17.181,0,0,1,2.786-1.688l.063.078a17.18,17.18,0,0,1-2.218,2.386,29.786,29.786,0,0,1-2.565,1.959q-2.586,1.933-5.226,3.8Z" transform="translate(-98.963 -165.413)"/><path class="cls-3" d="M490.637,236.72q.768-.89,1.589-1.715a3.88,3.88,0,0,1,.841-.8,2.673,2.673,0,0,1,1.184-.369l.062.078a2.673,2.673,0,0,1-.623,1.073,3.879,3.879,0,0,1-.966.643q-.987.617-2.026,1.168Z" transform="translate(-98.963 -165.413)"/><path class="cls-3" d="M492.442,247.825Q494.7,245.5,497,243.239A29.841,29.841,0,0,1,499.335,241a17.213,17.213,0,0,1,2.7-1.829l.067.074a17.211,17.211,0,0,1-2.1,2.5,29.838,29.838,0,0,1-2.465,2.089q-2.487,2.064-5.031,4.066Z" transform="translate(-98.963 -165.413)"/><path class="cls-3" d="M493.136,251.287q1.411-1.7,2.882-3.349a13.907,13.907,0,0,1,1.494-1.621,8.285,8.285,0,0,1,1.881-1.23l.07.071a8.285,8.285,0,0,1-1.247,1.87,13.905,13.905,0,0,1-1.634,1.479q-1.658,1.455-3.374,2.852Z" transform="translate(-98.963 -165.413)"/><path class="cls-3" d="M494.248,253.017q.6-.877,1.251-1.694a3.143,3.143,0,0,1,.678-.793,2.262,2.262,0,0,1,1.06-.4l.069.072a2.262,2.262,0,0,1-.435,1.045,3.143,3.143,0,0,1-.817.649q-.84.625-1.737,1.19Z" transform="translate(-98.963 -165.413)"/><path class="cls-3" d="M495.732,255.051a3.584,3.584,0,0,1-.058-.721c0-.114-.071-.264.039-.33a.821.821,0,0,1,.54-.1l.091.041a.821.821,0,0,1,.28.474c.023.126-.138.169-.221.247a3.583,3.583,0,0,1-.58.433Z" transform="translate(-98.963 -165.413)"/><path class="cls-3" d="M543.062,215.516q4.012-1.682,8.052-3.285c1.343-.543,2.667-1.141,4.051-1.572A31.356,31.356,0,0,1,559.4,209.6l.034.094a31.361,31.361,0,0,1-3.932,1.9c-1.34.554-2.739.942-4.119,1.384q-4.131,1.353-8.29,2.627Z" transform="translate(-98.963 -165.413)"/><path class="cls-3" d="M544.868,217.391q2.283-1.139,4.6-2.2a18.518,18.518,0,0,1,2.326-1.03,10.868,10.868,0,0,1,2.529-.519l.037.093a10.867,10.867,0,0,1-2.2,1.356,18.516,18.516,0,0,1-2.4.844q-2.412.813-4.856,1.549Z" transform="translate(-98.963 -165.413)"/><path class="cls-3" d="M546.617,219.822q1.037-.9,2.119-1.727a5.31,5.31,0,0,1,1.1-.8,3.472,3.472,0,0,1,1.389-.333l.053.085a3.472,3.472,0,0,1-.914,1.1,5.312,5.312,0,0,1-1.2.63q-1.222.6-2.488,1.132Z" transform="translate(-98.963 -165.413)"/><path class="cls-3" d="M548.921,221.576q.61-.624,1.264-1.176c.218-.183.392-.441.671-.524a1.687,1.687,0,0,1,.956-.054l.052.085a1.688,1.688,0,0,1-.489.823,2.105,2.105,0,0,1-.775.353q-.792.325-1.627.578Z" transform="translate(-98.963 -165.413)"/><path class="cls-3" d="M549.584,224.174a7.137,7.137,0,0,1,.617-.863c.111-.132.173-.334.352-.37a.982.982,0,0,1,.668.079l.058.082a.982.982,0,0,1-.15.656c-.094.156-.305.146-.467.207a7.135,7.135,0,0,1-1.02.291Z" transform="translate(-98.963 -165.413)"/><path class="cls-3" d="M500.363,274.392q1.021-1.451,2.1-2.847a8.921,8.921,0,0,1,1.108-1.373,5.492,5.492,0,0,1,1.515-1l.074.067a5.492,5.492,0,0,1-.848,1.608,8.921,8.921,0,0,1-1.256,1.239q-1.28,1.217-2.623,2.377Z" transform="translate(-98.963 -165.413)"/><path class="cls-3" d="M502.726,275.657a15.584,15.584,0,0,1,.783-1.388c.142-.221.219-.5.447-.644a1.515,1.515,0,0,1,.855-.275l.074.067a1.515,1.515,0,0,1-.187.879c-.119.241-.39.347-.6.51a15.586,15.586,0,0,1-1.3.919Z" transform="translate(-98.963 -165.413)"/><path class="cls-3" d="M503.769,277.531a8.084,8.084,0,0,1,.472-1.03c.09-.162.116-.382.291-.464a1.038,1.038,0,0,1,.7-.092l.074.068a1.038,1.038,0,0,1-.034.7c-.068.182-.285.226-.439.329a8.086,8.086,0,0,1-.987.556Z" transform="translate(-98.963 -165.413)"/><path class="cls-3" d="M504.513,280.26a5.023,5.023,0,0,1,.551-.682c.1-.1.157-.277.31-.274a.87.87,0,0,1,.564.213l.046.089a.869.869,0,0,1-.148.585c-.085.127-.264.074-.4.1a5.02,5.02,0,0,1-.874.061Z" transform="translate(-98.963 -165.413)"/><path class="cls-3" d="M546.626,241.471q3.117-1.428,6.263-2.778a33.483,33.483,0,0,1,3.159-1.319,19.254,19.254,0,0,1,3.355-.805l.036.093a19.253,19.253,0,0,1-3.033,1.646,33.486,33.486,0,0,1-3.23,1.132q-3.242,1.1-6.514,2.124Z" transform="translate(-98.963 -165.413)"/><path class="cls-3" d="M548.194,243.489q2.253-1.1,4.537-2.129a17.905,17.905,0,0,1,2.3-.994,10.522,10.522,0,0,1,2.494-.481l.036.093a10.523,10.523,0,0,1-2.169,1.321,17.9,17.9,0,0,1-2.367.808q-2.379.777-4.789,1.476Z" transform="translate(-98.963 -165.413)"/><path class="cls-3" d="M550.414,245.219q1.111-.636,2.251-1.194a4.612,4.612,0,0,1,1.151-.527,3.082,3.082,0,0,1,1.34-.01l.034.094a3.081,3.081,0,0,1-1.031.855,4.611,4.611,0,0,1-1.22.339q-1.231.307-2.491.536Z" transform="translate(-98.963 -165.413)"/><path class="cls-3" d="M553.01,247.24a11.88,11.88,0,0,1,1.059-.893c.183-.135.329-.349.562-.379a1.274,1.274,0,0,1,.8.118l.043.09a1.274,1.274,0,0,1-.411.695c-.17.162-.428.141-.648.2a11.875,11.875,0,0,1-1.361.261Z" transform="translate(-98.963 -165.413)"/></g><g id="Layer_1" data-name="Layer 1"><text class="cls-5" transform="translate(0 166.211)"><tspan xml:space="preserve">SBE   E</tspan></text></g><g id="Layer_3" data-name="Layer 3"><rect class="cls-6" x="539.264" y="139.743" width="18.864" height="7.5"/><rect class="cls-6" x="539.264" y="139.743" width="9.432" height="3.75"/><rect class="cls-6" x="548.696" y="139.743" width="9.432" height="3.75"/><rect class="cls-6" x="543.98" y="143.493" width="9.432" height="3.75"/><rect class="cls-6" x="539.264" y="132.243" width="18.864" height="7.5"/><rect class="cls-6" x="539.264" y="132.243" width="9.432" height="3.75"/><rect class="cls-6" x="548.696" y="132.243" width="9.432" height="3.75"/><rect class="cls-6" x="543.98" y="135.993" width="9.432" height="3.75"/><rect class="cls-6" x="539.264" y="125.076" width="18.864" height="7.5"/><rect class="cls-6" x="539.264" y="125.076" width="9.432" height="3.75"/><rect class="cls-6" x="548.696" y="125.076" width="9.432" height="3.75"/><rect class="cls-6" x="543.98" y="128.826" width="9.432" height="3.75"/><rect class="cls-6" x="539.264" y="117.576" width="18.864" height="7.5"/><rect class="cls-6" x="539.264" y="117.576" width="9.432" height="3.75"/><rect class="cls-6" x="548.696" y="117.576" width="9.432" height="3.75"/><rect class="cls-6" x="543.98" y="121.326" width="9.432" height="3.75"/><rect class="cls-6" x="539.264" y="110.41" width="18.864" height="7.5"/><rect class="cls-6" x="539.264" y="110.41" width="9.432" height="3.75"/><rect class="cls-6" x="548.696" y="110.41" width="9.432" height="3.75"/><rect class="cls-6" x="543.98" y="114.16" width="9.432" height="3.75"/><rect class="cls-6" x="539.264" y="102.91" width="18.864" height="7.5"/><rect class="cls-6" x="539.264" y="102.91" width="9.432" height="3.75"/><rect class="cls-6" x="548.696" y="102.91" width="9.432" height="3.75"/><rect class="cls-6" x="543.98" y="106.66" width="9.432" height="3.75"/><rect class="cls-6" x="539.264" y="95.743" width="18.864" height="7.5"/><rect class="cls-6" x="539.264" y="95.743" width="9.432" height="3.75"/><rect class="cls-6" x="548.696" y="95.743" width="9.432" height="3.75"/><rect class="cls-6" x="543.98" y="99.493" width="9.432" height="3.75"/><rect class="cls-6" x="539.264" y="88.243" width="18.864" height="7.5"/><rect class="cls-6" x="539.264" y="88.243" width="9.432" height="3.75"/><rect class="cls-6" x="548.696" y="88.243" width="9.432" height="3.75"/><rect class="cls-6" x="543.98" y="91.993" width="9.432" height="3.75"/><rect class="cls-6" x="539.264" y="80.743" width="18.864" height="7.5"/><rect class="cls-6" x="539.264" y="80.743" width="9.432" height="3.75"/><rect class="cls-6" x="548.696" y="80.743" width="9.432" height="3.75"/><rect class="cls-6" x="543.98" y="84.493" width="9.432" height="3.75"/><rect class="cls-6" x="539.264" y="73.243" width="18.864" height="7.5"/><rect class="cls-6" x="539.264" y="73.243" width="9.432" height="3.75"/><rect class="cls-6" x="548.696" y="73.243" width="9.432" height="3.75"/><rect class="cls-6" x="543.98" y="76.993" width="9.432" height="3.75"/><rect class="cls-6" x="539.264" y="66.076" width="18.864" height="7.5"/><rect class="cls-6" x="539.264" y="66.076" width="9.432" height="3.75"/><rect class="cls-6" x="548.696" y="66.076" width="9.432" height="3.75"/><rect class="cls-6" x="543.98" y="69.826" width="9.432" height="3.75"/><rect class="cls-6" x="539.264" y="58.576" width="18.864" height="7.5"/><rect class="cls-6" x="539.264" y="58.576" width="9.432" height="3.75"/><rect class="cls-6" x="548.696" y="58.576" width="9.432" height="3.75"/><rect class="cls-6" x="543.98" y="62.326" width="9.432" height="3.75"/><rect class="cls-6" x="539.264" y="51.41" width="18.864" height="7.5"/><rect class="cls-6" x="539.264" y="51.41" width="9.432" height="3.75"/><rect class="cls-6" x="548.696" y="51.41" width="9.432" height="3.75"/><rect class="cls-6" x="543.98" y="55.16" width="9.432" height="3.75"/><path class="cls-6" d="M658.174,211.26" transform="translate(-98.963 -165.413)"/><line class="cls-6" x1="549.628" y1="51.597" x2="557.305" y2="51.597"/><path class="cls-6" d="M676.341,201.093" transform="translate(-98.963 -165.413)"/><path class="cls-6" d="M619.841,202.093" transform="translate(-98.963 -165.413)"/><path class="cls-6" d="M658.466,209.151c1.333-1.542,1.75-3.062,17.625-3.255v-6.122a.429.429,0,0,0-.429-.429H648.77a.429.429,0,0,0-.429.429v17.6a.429.429,0,0,0,.429.429h7.869a.411.411,0,0,0,.473-.425S657.615,210.135,658.466,209.151Z" transform="translate(-98.963 -165.413)"/><path class="cls-6" d="M636.966,209.151c-1.333-1.542-1.75-3.062-17.625-3.255v-6.122a.429.429,0,0,1,.429-.429h26.892a.429.429,0,0,1,.429.429v17.6a.429.429,0,0,1-.429.429h-7.869a.411.411,0,0,1-.473-.425S637.817,210.135,636.966,209.151Z" transform="translate(-98.963 -165.413)"/><rect class="cls-7" x="547.699" y="33.428" width="2.108" height="19.477"/><path class="cls-8" d="M658.409,321.58c1.333,1.542,1.75,3.063,17.625,3.255v6.551h-27.75V312.929h8.542c.244,0,.285.085.265.414C657.091,313.343,657.558,320.6,658.409,321.58Z" transform="translate(-98.963 -165.413)"/><path class="cls-6" d="M636.909,321.58c-1.333,1.542-1.75,3.063-17.625,3.255v6.122a.429.429,0,0,0,.429.429h26.892a.429.429,0,0,0,.429-.429v-17.6a.429.429,0,0,0-.429-.429h-7.869a.411.411,0,0,0-.473.425S637.76,320.6,636.909,321.58Z" transform="translate(-98.963 -165.413)"/><rect class="cls-7" x="547.642" y="147" width="2.108" height="19.477"/><rect class="cls-6" x="133.467" y="139.972" width="18.864" height="7.5"/><rect class="cls-6" x="133.467" y="139.972" width="9.432" height="3.75"/><rect class="cls-6" x="142.899" y="139.972" width="9.432" height="3.75"/><rect class="cls-6" x="138.183" y="143.722" width="9.432" height="3.75"/><rect class="cls-6" x="133.467" y="132.472" width="18.864" height="7.5"/><rect class="cls-6" x="133.467" y="132.472" width="9.432" height="3.75"/><rect class="cls-6" x="142.899" y="132.472" width="9.432" height="3.75"/><rect class="cls-6" x="138.183" y="136.222" width="9.432" height="3.75"/><rect class="cls-6" x="133.467" y="125.306" width="18.864" height="7.5"/><rect class="cls-6" x="133.467" y="125.306" width="9.432" height="3.75"/><rect class="cls-6" x="142.899" y="125.306" width="9.432" height="3.75"/><rect class="cls-6" x="138.183" y="129.056" width="9.432" height="3.75"/><rect class="cls-6" x="133.467" y="117.806" width="18.864" height="7.5"/><rect class="cls-6" x="133.467" y="117.806" width="9.432" height="3.75"/><rect class="cls-6" x="142.899" y="117.806" width="9.432" height="3.75"/><rect class="cls-6" x="138.183" y="121.556" width="9.432" height="3.75"/><rect class="cls-6" x="133.467" y="110.639" width="18.864" height="7.5"/><rect class="cls-6" x="133.467" y="110.639" width="9.432" height="3.75"/><rect class="cls-6" x="142.899" y="110.639" width="9.432" height="3.75"/><rect class="cls-6" x="138.183" y="114.389" width="9.432" height="3.75"/><rect class="cls-6" x="133.467" y="103.139" width="18.864" height="7.5"/><rect class="cls-6" x="133.467" y="103.139" width="9.432" height="3.75"/><rect class="cls-6" x="142.899" y="103.139" width="9.432" height="3.75"/><rect class="cls-6" x="138.183" y="106.889" width="9.432" height="3.75"/><rect class="cls-6" x="133.467" y="95.972" width="18.864" height="7.5"/><rect class="cls-6" x="133.467" y="95.972" width="9.432" height="3.75"/><rect class="cls-6" x="142.899" y="95.972" width="9.432" height="3.75"/><rect class="cls-6" x="138.183" y="99.722" width="9.432" height="3.75"/><rect class="cls-6" x="133.467" y="88.472" width="18.864" height="7.5"/><rect class="cls-6" x="133.467" y="88.472" width="9.432" height="3.75"/><rect class="cls-6" x="142.899" y="88.472" width="9.432" height="3.75"/><rect class="cls-6" x="138.183" y="92.222" width="9.432" height="3.75"/><rect class="cls-6" x="133.467" y="80.972" width="18.864" height="7.5"/><rect class="cls-6" x="133.467" y="80.972" width="9.432" height="3.75"/><rect class="cls-6" x="142.899" y="80.972" width="9.432" height="3.75"/><rect class="cls-6" x="138.183" y="84.722" width="9.432" height="3.75"/><rect class="cls-6" x="133.467" y="73.472" width="18.864" height="7.5"/><rect class="cls-6" x="133.467" y="73.472" width="9.432" height="3.75"/><rect class="cls-6" x="142.899" y="73.472" width="9.432" height="3.75"/><rect class="cls-6" x="138.183" y="77.222" width="9.432" height="3.75"/><rect class="cls-6" x="133.467" y="66.306" width="18.864" height="7.5"/><rect class="cls-6" x="133.467" y="66.306" width="9.432" height="3.75"/><rect class="cls-6" x="142.899" y="66.306" width="9.432" height="3.75"/><rect class="cls-6" x="138.183" y="70.056" width="9.432" height="3.75"/><rect class="cls-6" x="133.467" y="58.806" width="18.864" height="7.5"/><rect class="cls-6" x="133.467" y="58.806" width="9.432" height="3.75"/><rect class="cls-6" x="142.899" y="58.806" width="9.432" height="3.75"/><rect class="cls-6" x="138.183" y="62.556" width="9.432" height="3.75"/><rect class="cls-6" x="133.467" y="51.639" width="18.864" height="7.5"/><rect class="cls-6" x="133.467" y="51.639" width="9.432" height="3.75"/><rect class="cls-6" x="142.899" y="51.639" width="9.432" height="3.75"/><rect class="cls-6" x="138.183" y="55.389" width="9.432" height="3.75"/><path class="cls-6" d="M252.377,211.489" transform="translate(-98.963 -165.413)"/><line class="cls-6" x1="143.831" y1="51.826" x2="151.508" y2="51.826"/><path class="cls-6" d="M270.544,201.322" transform="translate(-98.963 -165.413)"/><path class="cls-6" d="M214.044,202.322" transform="translate(-98.963 -165.413)"/><path class="cls-6" d="M252.669,209.38c1.333-1.542,1.75-3.916,17.625-4.108V200a.429.429,0,0,0-.429-.429H242.973a.429.429,0,0,0-.429.429v17.6a.429.429,0,0,0,.429.429h7.869a.411.411,0,0,0,.473-.425S251.818,210.364,252.669,209.38Z" transform="translate(-98.963 -165.413)"/><path class="cls-6" d="M231.169,209.38c-1.333-1.542-1.75-3.062-17.625-3.255V200a.429.429,0,0,1,.429-.429h26.892a.429.429,0,0,1,.429.429v17.6a.429.429,0,0,1-.429.429H233a.411.411,0,0,1-.473-.425S232.02,210.364,231.169,209.38Z" transform="translate(-98.963 -165.413)"/><rect class="cls-7" x="141.902" y="33.657" width="2.108" height="19.477"/><path class="cls-8" d="M252.612,321.809c1.492.691,2.367,2.5,17.625,3.255v6.551h-27.75V313.158h8.542c.244,0,.285.085.265.414C251.294,313.572,251.337,321.218,252.612,321.809Z" transform="translate(-98.963 -165.413)"/><path class="cls-6" d="M231.112,321.809c-1.333,1.542-1.75,3.063-17.625,3.255v6.122a.429.429,0,0,0,.429.429h26.892a.429.429,0,0,0,.429-.429v-17.6a.429.429,0,0,0-.429-.429h-7.869a.411.411,0,0,0-.473.425S231.963,320.825,231.112,321.809Z" transform="translate(-98.963 -165.413)"/><rect class="cls-7" x="141.845" y="147.229" width="2.108" height="19.477"/><rect class="cls-6" x="267.904" y="139.906" width="18.864" height="7.5"/><rect class="cls-6" x="267.904" y="139.906" width="9.432" height="3.75"/><rect class="cls-6" x="277.336" y="139.906" width="9.432" height="3.75"/><rect class="cls-6" x="272.62" y="143.656" width="9.432" height="3.75"/><rect class="cls-6" x="267.904" y="132.406" width="18.864" height="7.5"/><rect class="cls-6" x="267.904" y="132.406" width="9.432" height="3.75"/><rect class="cls-6" x="277.336" y="132.406" width="9.432" height="3.75"/><rect class="cls-6" x="272.62" y="136.156" width="9.432" height="3.75"/><rect class="cls-6" x="267.904" y="125.24" width="18.864" height="7.5"/><rect class="cls-6" x="267.904" y="125.24" width="9.432" height="3.75"/><rect class="cls-6" x="277.336" y="125.24" width="9.432" height="3.75"/><rect class="cls-6" x="272.62" y="128.99" width="9.432" height="3.75"/><rect class="cls-6" x="267.904" y="117.74" width="18.864" height="7.5"/><rect class="cls-6" x="267.904" y="117.74" width="9.432" height="3.75"/><rect class="cls-6" x="277.336" y="117.74" width="9.432" height="3.75"/><rect class="cls-6" x="272.62" y="121.49" width="9.432" height="3.75"/><rect class="cls-6" x="267.904" y="110.573" width="18.864" height="7.5"/><rect class="cls-6" x="267.904" y="110.573" width="9.432" height="3.75"/><rect class="cls-6" x="277.336" y="110.573" width="9.432" height="3.75"/><rect class="cls-6" x="272.62" y="114.323" width="9.432" height="3.75"/><rect class="cls-6" x="267.904" y="103.073" width="18.864" height="7.5"/><rect class="cls-6" x="267.904" y="103.073" width="9.432" height="3.75"/><rect class="cls-6" x="277.336" y="103.073" width="9.432" height="3.75"/><rect class="cls-6" x="272.62" y="106.823" width="9.432" height="3.75"/><rect class="cls-6" x="267.904" y="95.906" width="18.864" height="7.5"/><rect class="cls-6" x="267.904" y="95.906" width="9.432" height="3.75"/><rect class="cls-6" x="277.336" y="95.906" width="9.432" height="3.75"/><rect class="cls-6" x="272.62" y="99.656" width="9.432" height="3.75"/><rect class="cls-6" x="267.904" y="88.406" width="18.864" height="7.5"/><rect class="cls-6" x="267.904" y="88.406" width="9.432" height="3.75"/><rect class="cls-6" x="277.336" y="88.406" width="9.432" height="3.75"/><rect class="cls-6" x="272.62" y="92.156" width="9.432" height="3.75"/><rect class="cls-6" x="267.904" y="80.906" width="18.864" height="7.5"/><rect class="cls-6" x="267.904" y="80.906" width="9.432" height="3.75"/><rect class="cls-6" x="277.336" y="80.906" width="9.432" height="3.75"/><rect class="cls-6" x="272.62" y="84.656" width="9.432" height="3.75"/><rect class="cls-6" x="267.904" y="73.406" width="18.864" height="7.5"/><rect class="cls-6" x="267.904" y="73.406" width="9.432" height="3.75"/><rect class="cls-6" x="277.336" y="73.406" width="9.432" height="3.75"/><rect class="cls-6" x="272.62" y="77.156" width="9.432" height="3.75"/><rect class="cls-6" x="267.904" y="66.24" width="18.864" height="7.5"/><rect class="cls-6" x="267.904" y="66.24" width="9.432" height="3.75"/><rect class="cls-6" x="277.336" y="66.24" width="9.432" height="3.75"/><rect class="cls-6" x="272.62" y="69.99" width="9.432" height="3.75"/><rect class="cls-6" x="267.904" y="58.74" width="18.864" height="7.5"/><rect class="cls-6" x="267.904" y="58.74" width="9.432" height="3.75"/><rect class="cls-6" x="277.336" y="58.74" width="9.432" height="3.75"/><rect class="cls-6" x="272.62" y="62.49" width="9.432" height="3.75"/><rect class="cls-6" x="267.904" y="51.573" width="18.864" height="7.5"/><rect class="cls-6" x="267.904" y="51.573" width="9.432" height="3.75"/><rect class="cls-6" x="277.336" y="51.573" width="9.432" height="3.75"/><rect class="cls-6" x="272.62" y="55.323" width="9.432" height="3.75"/><path class="cls-6" d="M386.814,211.423" transform="translate(-98.963 -165.413)"/><line class="cls-6" x1="278.268" y1="51.76" x2="285.945" y2="51.76"/><path class="cls-6" d="M404.98,201.257" transform="translate(-98.963 -165.413)"/><path class="cls-6" d="M348.48,201.863" transform="translate(-98.963 -165.413)"/><path class="cls-6" d="M387.105,209.315c1.333-1.542,1.75-3.062,17.625-3.255v-6.122a.429.429,0,0,0-.429-.429H377.409a.429.429,0,0,0-.429.429v17.6a.429.429,0,0,0,.429.429h7.869a.411.411,0,0,0,.473-.425S386.255,210.3,387.105,209.315Z" transform="translate(-98.963 -165.413)"/><path class="cls-6" d="M365.605,209.315c-1.333-1.542-1.75-3.062-17.625-3.255v-6.122a.429.429,0,0,1,.429-.429H375.3a.429.429,0,0,1,.429.429v17.6a.429.429,0,0,1-.429.429h-7.869a.411.411,0,0,1-.473-.425S366.456,210.3,365.605,209.315Z" transform="translate(-98.963 -165.413)"/><rect class="cls-7" x="276.338" y="33.591" width="2.108" height="19.477"/><path class="cls-8" d="M387.049,321.743c1.333,1.542,1.75,3.063,17.625,3.255v6.551h-27.75V313.092h8.542c.244,0,.285.085.265.414C385.73,313.506,386.2,320.759,387.049,321.743Z" transform="translate(-98.963 -165.413)"/><path class="cls-6" d="M365.549,321.743c-1.333,1.542-1.75,3.063-17.625,3.255v6.122a.429.429,0,0,0,.429.429h26.892a.429.429,0,0,0,.429-.429v-17.6a.429.429,0,0,0-.429-.429h-7.869a.411.411,0,0,0-.473.425S366.4,320.759,365.549,321.743Z" transform="translate(-98.963 -165.413)"/><rect class="cls-7" x="276.282" y="147.163" width="2.108" height="19.477"/></g></svg>